<svg width="226" height="56" viewBox="0 0 226 56" fill="none" xmlns="http://www.w3.org/2000/svg">
  <path
    d="M106.084 42.067h1.27l-.918 4.835h2.292l-.216 1.117h-3.562l1.134-5.952zM111.003 41.908a13.163 13.163 0 0 1-1.381 2.394l-.799.08c.384-.771.705-1.572.959-2.394l1.221-.08zM110.867 48.02l1.182-6.272h1.27l-.479 2.498a1.795 1.795 0 0 1 1.373-.647 1.04 1.04 0 0 1 1.086 1.165c-.004.268-.03.535-.08.798l-.463 2.473h-1.277l.447-2.393c.035-.176.054-.355.056-.535 0-.287-.12-.486-.44-.486-.439 0-.894.534-1.062 1.412l-.367 1.978-1.246.008zM120.682 43.703l-.559 2.912c-.104.543-.168 1.013-.231 1.404h-1.118l.079-.71a1.884 1.884 0 0 1-1.493.798c-.695 0-1.11-.391-1.11-1.213.004-.268.033-.535.088-.797l.455-2.394h1.27l-.431 2.314c-.039.183-.061.37-.064.558 0 .287.103.51.431.51.327 0 .878-.526 1.046-1.387l.375-1.995h1.262zM121.161 48.019l.535-2.912c.096-.55.168-1.03.224-1.404h1.062l-.08.694a1.741 1.741 0 0 1 1.477-.798.927.927 0 0 1 1.023.798c.33-.497.888-.796 1.485-.798a1.016 1.016 0 0 1 1.062 1.157 4.889 4.889 0 0 1-.08.734l-.471 2.521h-1.222l.431-2.393c.034-.174.053-.35.056-.527 0-.303-.127-.51-.431-.51-.423 0-.798.574-1.006 1.435l-.359 1.963h-1.23l.439-2.393c.039-.162.061-.328.064-.495 0-.287-.096-.526-.407-.526-.432 0-.887.606-1.039 1.452l-.359 1.946-1.174.056z"
    fill="#29338A"/>
  <path fill-rule="evenodd" clip-rule="evenodd" d="M131.607 47.158c-.056.31-.056.606-.056.861h1.198c-.003-.652.053-1.304.167-1.946l.455-2.258a5.239 5.239 0 0 0-1.429-.207 2.915 2.915 0 0 0-3.091 3.007 1.336 1.336 0 0 0 1.31 1.5 1.6 1.6 0 0 0 1.446-.957zm-.032-2.553c.114-.014.229-.014.343 0l-.2 1.037c-.199 1.053-.694 1.492-1.046 1.492-.351 0-.519-.295-.519-.718 0-.806.623-1.811 1.422-1.811zM135.04 42.988c.116.117.276.18.44.172h.008a.702.702 0 0 0 .751-.71.598.598 0 0 0-.631-.63.728.728 0 0 0-.735.726.585.585 0 0 0 .167.442zm-.359.715-.798 4.316h1.27l.798-4.316h-1.27z" fill="#29338A"/>
  <path d="m136.446 48.02.543-2.913c.104-.55.176-1.029.232-1.404h1.134l-.096.71c.341-.502.91-.801 1.517-.798a1.037 1.037 0 0 1 1.102 1.173 4.882 4.882 0 0 1-.071.734l-.472 2.505h-1.277l.455-2.393c.025-.161.039-.324.04-.487 0-.303-.104-.51-.423-.51-.32 0-.903.518-1.079 1.475l-.359 1.915-1.246-.008z" fill="#29338A"/>
  <path fill-rule="evenodd" clip-rule="evenodd" d="M146.372 47.157c-.064.311-.064.607-.064.862h1.206a9.558 9.558 0 0 1 .168-1.947l.455-2.258a5.258 5.258 0 0 0-1.429-.207 2.903 2.903 0 0 0-3.091 3.008 1.332 1.332 0 0 0 1.302 1.5 1.636 1.636 0 0 0 1.453-.958zm-.032-2.553a1.5 1.5 0 0 1 .344 0l-.208 1.037c-.192 1.053-.687 1.492-1.038 1.492-.352 0-.519-.295-.519-.718 0-.806.623-1.81 1.421-1.81z" fill="#29338A"/>
  <path d="m153.328 43.703-.551 2.912c-.111.543-.167 1.013-.231 1.404h-1.126l.08-.71a1.87 1.87 0 0 1-1.494.798c-.686 0-1.102-.391-1.102-1.213 0-.268.03-.536.088-.797l.447-2.394h1.278l-.431 2.314c-.039.183-.06.37-.064.558 0 .287.104.51.431.51.328 0 .871-.526 1.046-1.387l.376-1.995h1.253zM158.806 47.867a2.925 2.925 0 0 1-1.23.232 1.686 1.686 0 0 1-1.852-1.755 2.71 2.71 0 0 1 2.819-2.736c.298-.006.595.04.878.135l-.311.981a1.44 1.44 0 0 0-.583-.103 1.5 1.5 0 0 0-1.47 1.595.796.796 0 0 0 .879.854c.297.001.591-.061.862-.184l.008.981z" fill="#29338A"/>
  <path fill-rule="evenodd" clip-rule="evenodd"
        d="M166.106 47.74a3.117 3.117 0 0 1-1.541.375 1.598 1.598 0 0 1-1.47-.798 1.876 1.876 0 0 1-1.557.798 1.71 1.71 0 0 1-1.821-1.843 2.487 2.487 0 0 1 2.396-2.665 1.463 1.463 0 0 1 1.414.798 1.996 1.996 0 0 1 1.597-.798 1.286 1.286 0 0 1 1.461 1.221c0 1.276-1.405 1.532-2.755 1.5a.637.637 0 0 0 .12.455c.218.232.528.355.846.335.407.005.809-.085 1.174-.264l.136.886zm-4.352-.606c.718 0 1.078-1.038 1.078-1.724 0-.446-.16-.861-.655-.861-.727 0-1.102.973-1.102 1.7 0 .526.255.885.671.885h.008zm3.186-2.601c.375 0 .519.183.519.383v.016c0 .423-.727.47-1.445.47.082-.462.459-.816.926-.87z"
        fill="#29338A"/>
  <path d="m171.799 43.703-.551 2.912c-.112.543-.168 1.013-.231 1.404h-1.126l.079-.71a1.876 1.876 0 0 1-1.493.798c-.687 0-1.102-.391-1.102-1.213 0-.268.03-.536.088-.797l.447-2.394h1.278l-.431 2.314c-.039.183-.061.37-.064.558 0 .287.103.51.431.51.327 0 .87-.526 1.046-1.387l.375-1.995h1.254zM172.278 48.02l.487-2.57c.12-.654.176-1.38.224-1.747h1.102c0 .287-.056.582-.08.878a1.598 1.598 0 0 1 1.382-.974h.239l-.247 1.237h-.208c-.798 0-1.19.726-1.349 1.596l-.304 1.595-1.246-.016z" fill="#29338A"/>
  <path fill-rule="evenodd" clip-rule="evenodd"
        d="m181.814 46.344.871-4.596-1.222.04-.368 1.955a1.718 1.718 0 0 0-.591-.096 2.771 2.771 0 0 0-2.723 2.872c0 1.014.607 1.596 1.342 1.596a1.669 1.669 0 0 0 1.413-.798l-.056.702h1.126c.032-.562.102-1.122.208-1.675zm-1.461-1.78c.182-.002.36.05.511.152l-.224 1.15c-.183.82-.615 1.212-.982 1.212s-.599-.28-.599-.798c0-.83.495-1.715 1.294-1.715zM184.801 48.115a3.708 3.708 0 0 0 1.597-.343l-.12-.934a2.707 2.707 0 0 1-1.206.272.983.983 0 0 1-.798-.335.867.867 0 0 1-.136-.44c1.733.04 2.803-.358 2.803-1.46a1.323 1.323 0 0 0-1.501-1.284 2.597 2.597 0 0 0-2.524 2.68 1.685 1.685 0 0 0 1.885 1.843zm.479-3.582c.287 0 .463.151.463.359v.008c0 .39-.495.518-1.485.518a1.085 1.085 0 0 1 1.022-.885z"
        fill="#29338A"/>
  <path d="m189.265 48.019.543-2.912c.111-.55.183-1.03.231-1.404h1.134l-.088.71c.341-.502.91-.801 1.518-.798a1.037 1.037 0 0 1 1.11 1.173c-.009.246-.033.49-.072.734l-.479 2.505h-1.27l.447-2.394c.028-.16.044-.323.048-.486 0-.303-.112-.51-.423-.51-.312 0-.903.518-1.078 1.475l-.368 1.915-1.253-.008z" fill="#29338A"/>
  <path fill-rule="evenodd" clip-rule="evenodd" d="M198.337 47.307a2.57 2.57 0 0 0 .694-1.929 1.708 1.708 0 0 0-1.829-1.77 2.59 2.59 0 0 0-2.579 2.72 1.706 1.706 0 0 0 1.828 1.787 2.573 2.573 0 0 0 1.886-.808zm-1.71-.237c-.439 0-.687-.295-.687-.798v-.016c-.008-.67.36-1.74 1.094-1.74.512 0 .679.4.679.799 0 .742-.383 1.755-1.086 1.755z" fill="#29338A"/>
  <path
    d="M199.79 46.878c.352.18.738.284 1.134.303.359 0 .551-.175.551-.39 0-.216-.144-.36-.543-.56a1.357 1.357 0 0 1-.919-1.148c0-.886.799-1.476 1.901-1.476.382-.018.763.056 1.11.215l-.295.902a2.04 2.04 0 0 0-.871-.191c-.335 0-.559.151-.559.374 0 .224.176.328.527.495.352.168.966.582.966 1.189 0 .981-.846 1.532-1.98 1.524a2.566 2.566 0 0 1-1.326-.343l.304-.894zM205.54 46.878c.349.18.733.284 1.126.303.367 0 .551-.175.551-.39 0-.216-.144-.36-.543-.56a1.356 1.356 0 0 1-.918-1.148c0-.886.798-1.476 1.9-1.476.385-.016.767.058 1.118.215l-.303.902a2.033 2.033 0 0 0-.863-.191c-.343 0-.567.151-.567.374 0 .224.176.328.527.495.352.168.967.582.967 1.189 0 .981-.839 1.532-1.981 1.524a2.561 2.561 0 0 1-1.325-.343l.311-.894z"
    fill="#29338A"/>
  <path fill-rule="evenodd" clip-rule="evenodd" d="M213.137 47.307a2.574 2.574 0 0 0 .7-1.929 1.716 1.716 0 0 0-1.829-1.77 2.588 2.588 0 0 0-2.587 2.72 1.705 1.705 0 0 0 1.828 1.787 2.58 2.58 0 0 0 1.888-.808zm-1.704-.237c-.447 0-.695-.295-.695-.798v-.016c-.008-.67.368-1.74 1.102-1.74.511 0 .679.4.679.799 0 .742-.391 1.755-1.086 1.755zM215.594 42.988c.116.117.275.18.44.172h.008a.703.703 0 0 0 .75-.71.597.597 0 0 0-.631-.63.728.728 0 0 0-.734.726.581.581 0 0 0 .167.442zm-.359.715-.798 4.316h1.269l.799-4.316h-1.27z" fill="#29338A"/>
  <path
    d="m217 48.019.543-2.912c.112-.55.176-1.03.232-1.404h1.134l-.088.71c.341-.502.91-.801 1.517-.798a1.029 1.029 0 0 1 1.102 1.173c-.006.246-.028.49-.064.734l-.479 2.505h-1.286l.456-2.394a3.293 3.293 0 0 0 0-.486c0-.303-.104-.51-.424-.51-.319 0-.902.518-1.078 1.475l-.359 1.915-1.206-.008zM222.351 46.878c.351.18.738.284 1.134.303.359 0 .543-.175.543-.39 0-.216-.136-.36-.536-.56a1.357 1.357 0 0 1-.918-1.148c0-.886.799-1.476 1.901-1.476.382-.018.762.056 1.11.215l-.304.902a1.995 1.995 0 0 0-.862-.191c-.336 0-.567.151-.567.374 0 .224.176.328.535.495.359.168.958.582.958 1.189 0 .981-.838 1.532-1.98 1.524a2.59 2.59 0 0 1-1.326-.343l.312-.894zM63.903 20.623v5.672h5.502v-5.672h3.33v14.76h-3.33v-6.176h-5.502v6.175h-3.354V20.623h3.354z"
    fill="#29338A"/>
  <path fill-rule="evenodd" clip-rule="evenodd"
        d="m81.335 20.008 2.173 3.327h-2.133l-1.118-1.907-1.102 1.907h-2.172l2.172-3.327h2.18zm4.512 9.9a5.366 5.366 0 0 1-1.54 4.127 5.377 5.377 0 0 1-4.114 1.586 5.258 5.258 0 0 1-4.037-1.505 5.247 5.247 0 0 1-1.553-4.016c0-3.454 2.284-5.672 5.726-5.672a5.217 5.217 0 0 1 3.961 1.522 5.206 5.206 0 0 1 1.517 3.959h.04zm-5.606 3.296c-1.397 0-2.196-1.349-2.196-3.191 0-1.548.687-3.192 2.196-3.192 1.51 0 2.125 1.596 2.125 3.192 0 1.898-.83 3.19-2.125 3.19zM87.605 24.676c.04.98.087 2.186.087 3.59l.016 11.456h3.33v-5.321a3.331 3.331 0 0 0 2.78 1.22c2.395 0 4.87-1.835 4.87-5.736 0-3.414-2.107-5.457-4.455-5.457a4.114 4.114 0 0 0-3.538 1.732h-.048l-.152-1.484h-2.89zm3.497 6.805a3.553 3.553 0 0 1-.064-.694v-1.452c0-.201.022-.402.064-.599a2.1 2.1 0 0 1 1.997-1.683c1.461 0 2.26 1.18 2.26 3 0 1.819-.855 3.023-2.3 3.023a2.02 2.02 0 0 1-1.957-1.595zM103.488 22.922c.343-.317.537-.763.536-1.23h-.032a1.658 1.658 0 0 0-1.773-1.683 1.676 1.676 0 1 0 0 3.35 1.67 1.67 0 0 0 1.269-.437zm.472 1.754h-3.338v10.706h3.338V24.676z"
        fill="#29338A"/>
  <path d="M110.101 21.756v2.92h2.396v2.449h-2.396v3.877c0 1.293.303 1.883 1.309 1.883.333.009.665-.02.991-.088v2.521a6.469 6.469 0 0 1-2.172.303 3.46 3.46 0 0 1-2.5-.94c-.615-.631-.918-1.66-.918-3.192v-4.364h-1.398v-2.45h1.43v-2.018l3.258-.901z" fill="#29338A"/>
  <path fill-rule="evenodd" clip-rule="evenodd" d="M123.302 35.382a16.147 16.147 0 0 1-.16-2.609V29.04c0-2.521-1.134-4.628-4.712-4.628a8.917 8.917 0 0 0-4.168.942l.615 2.146a6.135 6.135 0 0 1 2.962-.798c1.646 0 1.949.806 1.949 1.38v.152c-3.793-.024-6.293 1.316-6.293 4.093a3.283 3.283 0 0 0 3.466 3.287 3.853 3.853 0 0 0 3.067-1.309h.071l.192 1.077h3.011zM116.785 32c0-1.292 1.358-1.683 3.115-1.683v1.157c0 .193-.022.386-.064.574a1.82 1.82 0 0 1-1.733 1.22A1.2 1.2 0 0 1 116.785 32z" fill="#29338A"/>
  <path fill="#29338A"
        d="M125.554 19.833h3.33v15.549h-3.33zM144.48 29.143h-5.438v3.503h6.069v2.736h-9.423V20.623h9.119v2.736h-5.765v3.064h5.438v2.72zM156.954 31.912c0 1.404.04 2.545.088 3.438h-2.915l-.159-1.508h-.064a3.827 3.827 0 0 1-3.354 1.747c-2.173 0-3.77-1.356-3.77-4.667v-6.246h3.354v5.76c0 1.595.503 2.497 1.661 2.497a1.788 1.788 0 0 0 1.669-1.165 1.87 1.87 0 0 0 .112-.726V24.66h3.354l.024 7.252zM159.405 28.202c0-1.596-.04-2.61-.088-3.527h2.875l.112 1.971h.088a3.195 3.195 0 0 1 3.594-2.17v3.191a3.408 3.408 0 0 0-.895-.112 2.148 2.148 0 0 0-2.284 1.692 3.62 3.62 0 0 0-.064.742v5.433h-3.338v-7.22z"/>
  <path fill-rule="evenodd" clip-rule="evenodd"
        d="M176.391 34.035a5.363 5.363 0 0 0 1.541-4.126 5.206 5.206 0 0 0-1.517-3.96 5.218 5.218 0 0 0-3.961-1.52c-3.442 0-5.726 2.217-5.726 5.672a5.244 5.244 0 0 0 1.54 4 5.257 5.257 0 0 0 4.01 1.52 5.378 5.378 0 0 0 4.113-1.586zm-4.025-.83c-1.397 0-2.196-1.35-2.196-3.192 0-1.548.687-3.191 2.196-3.191 1.51 0 2.124 1.595 2.124 3.191 0 1.899-.83 3.191-2.124 3.191zM179.689 24.676c.048.981.088 2.186.088 3.59l-.04 11.456h3.33v-5.321h.048a3.34 3.34 0 0 0 2.779 1.22c2.396 0 4.872-1.834 4.872-5.736 0-3.414-2.108-5.457-4.448-5.457a4.123 4.123 0 0 0-3.578 1.732l-.16-1.484h-2.891zm3.49 6.805a3 3 0 0 1-.072-.694v-1.468a2.413 2.413 0 0 1 .072-.598 2.084 2.084 0 0 1 1.989-1.668c1.461 0 2.26 1.181 2.26 3s-.855 3.024-2.3 3.024a2.004 2.004 0 0 1-1.949-1.596zM198.393 23.383l2.675-3.327h-3.09l-1.885 3.327h2.3zm-3.091 7.73c.112 1.38 1.47 2.035 3.027 2.035 1.002.013 2-.135 2.955-.439l.439 2.258c-1.24.467-2.556.697-3.881.678-3.634 0-5.718-2.122-5.718-5.473 0-2.712 1.685-5.72 5.414-5.72 3.466 0 4.792 2.696 4.792 5.345 0 .441-.035.881-.104 1.317h-6.924zm3.921-2.281a1.932 1.932 0 0 0-1.884-2.162 2.18 2.18 0 0 0-2.061 2.162h3.945zM209.685 33.148c-1.558 0-2.915-.654-3.027-2.034h6.916c.072-.435.109-.876.111-1.317 0-2.648-1.325-5.345-4.791-5.345-3.729 0-5.415 3.008-5.415 5.72 0 3.351 2.085 5.473 5.718 5.473 1.325.02 2.642-.21 3.881-.678l-.431-2.258a9.403 9.403 0 0 1-2.962.44zm.436-5.818c.36.413.526.959.458 1.502h-3.945a2.187 2.187 0 0 1 2.06-2.162 1.927 1.927 0 0 1 1.427.66z"
        fill="#29338A"/>
  <path d="M215.45 28.09c0-1.34-.048-2.473-.088-3.414h2.891l.16 1.468h.064a3.905 3.905 0 0 1 3.306-1.716c2.196 0 3.841 1.452 3.841 4.604v6.382h-3.33v-5.968c0-1.38-.487-2.321-1.693-2.321a1.773 1.773 0 0 0-1.685 1.253 2.308 2.308 0 0 0-.136.797v6.175h-3.33v-7.26zM64.318 45.514c-.04-.798-.088-1.675-.08-2.394a31.307 31.307 0 0 1-.687 2.075l-.99 2.672h-.535l-.887-2.6c-.255-.798-.47-1.468-.63-2.123 0 .687-.056 1.596-.104 2.394l-.144 2.337h-.687l.376-5.456h.902l.934 2.64c.224.67.408 1.269.551 1.835.16-.621.352-1.233.575-1.835l.975-2.609h.894l.343 5.457h-.686l-.12-2.393z" fill="#29338A"/>
  <path fill-rule="evenodd" clip-rule="evenodd" d="m66.674 47.908.567-1.716h1.965l.582 1.716h.751l-1.86-5.457H67.8l-1.853 5.457h.727zm1.82-3.862.536 1.596-1.63-.008.536-1.596c.104-.335.2-.662.28-.989.08.32.159.638.279.997zM72.88 42.41a7.523 7.523 0 0 0-1.358.112l.007 5.393h.703v-2.393h.671c.639.024.926.263 1.094 1.061.08.444.2.879.36 1.3h.734a7.711 7.711 0 0 1-.423-1.5 1.364 1.364 0 0 0-.799-1.1 1.428 1.428 0 0 0 1.03-1.389c.014-.39-.14-.767-.423-1.037a2.23 2.23 0 0 0-1.597-.447zm.07 2.601h-.726v-1.994c.231-.049.467-.07.703-.064.743.008 1.254.399 1.254 1.021 0 .623-.48 1.037-1.23 1.037z"
        fill="#29338A"/>
  <path
    d="M75.985 47.07c.386.226.823.347 1.27.35.719 0 1.142-.374 1.142-.925 0-.55-.296-.797-1.03-1.085-.895-.319-1.446-.797-1.446-1.547a1.595 1.595 0 0 1 1.773-1.484c.418-.014.832.077 1.206.263l-.192.574a2.221 2.221 0 0 0-1.038-.255c-.75 0-1.03.447-1.03.798 0 .51.328.798 1.086 1.053.918.359 1.39.798 1.39 1.596 0 .797-.623 1.595-1.909 1.595a2.875 2.875 0 0 1-1.397-.35l.175-.583zM83.117 45.347h-2.124v1.97h2.364v.59H80.29v-5.456h2.947v.59h-2.244v1.723h2.124v.583zM84.475 42.451h.703v5.457h-.703zM86.622 42.45h.703v4.867h2.332v.59h-3.035v-5.456zM90.647 42.45h.703v4.867h2.34v.59h-3.043v-5.456zM97.507 45.347h-2.125v1.97h2.372v.59H94.68v-5.456h2.946v.59h-2.244v1.723h2.125v.583z"
    fill="#29338A"/>
  <path fill-rule="evenodd" clip-rule="evenodd" d="M12.842 1.034c.256-.35.659-.563 1.093-.58h6.588V20.52H.471v-6.821c0-2.274 1.996-1.3 1.996-1.3l12.05 3.558 1.454-1.444c-.67-2.8-2.467-9.151-3.354-12.262a1.419 1.419 0 0 1 .225-1.216z" fill="url(#q48l46imza)"/>
  <path d="M42.7 2.25c-.894 3.111-2.691 9.461-3.354 12.262l1.454 1.444 12.042-3.542s2.005-.974 2.005 1.3v6.821h-20.06V.455h6.596a1.422 1.422 0 0 1 1.325 1.795" fill="#AE9A64"/>
  <path fill-rule="evenodd" clip-rule="evenodd" d="M34.786 55.287V35.231h20.069V42.044c0 2.273-2.005 1.3-2.005 1.3l-12.043-3.542-1.453 1.436c.663 2.8 2.46 9.15 3.354 12.262a1.419 1.419 0 0 1-1.325 1.787h-6.597z" fill="url(#etydxpk4ab)"/>
  <path fill-rule="evenodd" clip-rule="evenodd" d="m20.54 55.282-.006.005h-6.599a1.414 1.414 0 0 1-1.317-1.787c.886-3.111 2.683-9.462 3.354-12.262l-1.47-1.436-12.05 3.542s-1.997.973-1.997-1.3V35.23H20.53l.01.009v20.042z" fill="url(#0g58rkwymc)"/>
  <path fill="#29338A" d="M101.245 39.395h.519v11.409h-.519z"/>
  <defs>
    <linearGradient id="q48l46imza" x1="14.758" y1="20.373" x2="14.758" y2="11.176" gradientUnits="userSpaceOnUse">
      <stop stop-color="#29338A"/>
      <stop offset=".5" stop-color="#29338A"/>
      <stop offset="1" stop-color="#24246C"/>
    </linearGradient>
    <linearGradient id="etydxpk4ab" x1="40.821" y1="35.309" x2="40.821" y2="44.502" gradientUnits="userSpaceOnUse">
      <stop stop-color="#29338A"/>
      <stop offset=".5" stop-color="#29338A"/>
      <stop offset="1" stop-color="#24246C"/>
    </linearGradient>
    <linearGradient id="0g58rkwymc" x1="20.472" y1="40" x2="11.266" y2="40" gradientUnits="userSpaceOnUse">
      <stop stop-color="#29338A"/>
      <stop offset=".5" stop-color="#29338A"/>
      <stop offset="1" stop-color="#24246C"/>
    </linearGradient>
  </defs>
</svg>
